<svg width="64" height="64" viewBox="0 0 64 64" fill="none" xmlns="http://www.w3.org/2000/svg">
<path d="M0 32C0 14.3269 14.3269 0 32 0C49.6731 0 64 14.3269 64 32C64 49.6731 49.6731 64 32 64C14.3269 64 0 49.6731 0 32Z" fill="#B89869"/>
<path d="M19.5556 16C17.5972 16 16 17.5972 16 19.5556V44.4444C16 46.4028 17.5972 48 19.5556 48H44.4444C46.4028 48 48 46.4028 48 44.4444V19.5556C48 17.5972 46.4028 16 44.4444 16H19.5556ZM22.0556 24.3333H26.6667C30.7569 24.3333 31.4444 26.8472 31.4444 28.4444C31.4444 30.7569 29.8542 31.4861 29.5 31.6667C29.8542 31.8472 31.6667 32.3333 31.6667 35C31.8472 38.2014 29.8472 39.4444 27 39.4444H22.0556V24.3333ZM34.5 24.3333H41.0556V26.1111H34.5V24.3333ZM25.0556 26.8333V30.5556H26.6667C27.7361 30.5556 28.4444 30.2014 28.4444 28.7778C28.4444 27.5347 27.9097 26.8333 26.6667 26.8333H25.0556ZM38.3889 28.1111C40.875 28.1111 42.6667 29.5208 42.6667 33.6111V34.8333H36.6111C36.6111 35.3681 36.6458 37.3333 38.7778 37.3333C40.2014 37.3333 40.8681 36.6319 41.2222 36.2778L42.5 38.0556C42.3194 38.2361 41.0903 39.6667 38.7778 39.6667C36.1111 39.6667 33.9444 38.2361 33.9444 34.5V33.6111C33.9444 29.5208 36.0764 28.1111 38.3889 28.1111ZM38.0556 30.3889C37.5208 30.3889 36.4444 30.5903 36.4444 32.7222H39.4444C39.4444 32.7222 39.8333 30.3889 38.0556 30.3889ZM25.0556 32.8889V37H27C28.0694 37 28.6111 36.2431 28.6111 35C28.7917 33.5764 28.2917 32.8889 27.2222 32.8889H25.0556Z" fill="#FBFBFB"/>
</svg>
