<svg width="65" height="64" viewBox="0 0 65 64" fill="none" xmlns="http://www.w3.org/2000/svg">
<g clip-path="url(#clip0_144_531)">
<path d="M0.666626 32C0.666626 14.3269 14.9935 0 32.6666 0C50.3397 0 64.6666 14.3269 64.6666 32C64.6666 49.6731 50.3397 64 32.6666 64C14.9935 64 0.666626 49.6731 0.666626 32Z" fill="#B89869"/>
<path d="M48.6666 32.0401C48.6666 23.186 41.4986 16 32.6666 16C23.8346 16 16.6666 23.186 16.6666 32.0401C16.6666 39.8035 22.1706 46.2677 29.4666 47.7594V36.8521H26.2666V32.0401H29.4666V28.0301C29.4666 24.9343 31.9786 22.416 35.0666 22.416H39.0666V27.2281H35.8666C34.9866 27.2281 34.2666 27.9499 34.2666 28.8321V32.0401H39.0666V36.8521H34.2666V48C42.3466 47.198 48.6666 40.3649 48.6666 32.0401Z" fill="#FBFBFB"/>
</g>
<defs>
<clipPath id="clip0_144_531">
<path d="M0.666626 32C0.666626 14.3269 14.9935 0 32.6666 0C50.3397 0 64.6666 14.3269 64.6666 32C64.6666 49.6731 50.3397 64 32.6666 64C14.9935 64 0.666626 49.6731 0.666626 32Z" fill="white"/>
</clipPath>
</defs>
</svg>
