<svg width="64" height="64" viewBox="0 0 64 64" fill="none" xmlns="http://www.w3.org/2000/svg">
<path d="M0 32C0 14.3269 14.3269 0 32 0C49.6731 0 64 14.3269 64 32C64 49.6731 49.6731 64 32 64C14.3269 64 0 49.6731 0 32Z" fill="#B89869"/>
<path d="M24.8889 16C19.9804 16 16 19.9804 16 24.8889V39.1111C16 44.0196 19.9804 48 24.8889 48H39.1111C44.0196 48 48 44.0196 48 39.1111V24.8889C48 19.9804 44.0196 16 39.1111 16H24.8889ZM42.6667 19.5556C43.648 19.5556 44.4444 20.352 44.4444 21.3333C44.4444 22.3147 43.648 23.1111 42.6667 23.1111C41.6853 23.1111 40.8889 22.3147 40.8889 21.3333C40.8889 20.352 41.6853 19.5556 42.6667 19.5556ZM32 23.1111C36.9084 23.1111 40.8889 27.0916 40.8889 32C40.8889 36.9084 36.9084 40.8889 32 40.8889C27.0916 40.8889 23.1111 36.9084 23.1111 32C23.1111 27.0916 27.0916 23.1111 32 23.1111ZM32 26.6667C30.5855 26.6667 29.229 27.2286 28.2288 28.2288C27.2286 29.229 26.6667 30.5855 26.6667 32C26.6667 33.4145 27.2286 34.771 28.2288 35.7712C29.229 36.7714 30.5855 37.3333 32 37.3333C33.4145 37.3333 34.771 36.7714 35.7712 35.7712C36.7714 34.771 37.3333 33.4145 37.3333 32C37.3333 30.5855 36.7714 29.229 35.7712 28.2288C34.771 27.2286 33.4145 26.6667 32 26.6667Z" fill="#FBFBFB"/>
</svg>
