<svg width="65" height="64" viewBox="0 0 65 64" fill="none" xmlns="http://www.w3.org/2000/svg">
<path d="M0.333374 32C0.333374 14.3269 14.6603 0 32.3334 0C50.0065 0 64.3334 14.3269 64.3334 32C64.3334 49.6731 50.0065 64 32.3334 64C14.6603 64 0.333374 49.6731 0.333374 32Z" fill="#B89869"/>
<path d="M44.7778 16H19.8889C17.9245 16 16.3334 17.5911 16.3334 19.5556V44.4444C16.3334 46.4089 17.9245 48 19.8889 48H44.7778C46.7423 48 48.3334 46.4089 48.3334 44.4444V19.5556C48.3334 17.5911 46.7423 16 44.7778 16ZM27 40.8889H22.5147V28.4444H27V40.8889ZM24.6783 26.1636C23.3076 26.1636 22.392 25.2498 22.392 24.0302C22.392 22.8107 23.3058 21.8969 24.8294 21.8969C26.2 21.8969 27.1156 22.8107 27.1156 24.0302C27.1156 25.2498 26.2018 26.1636 24.6783 26.1636ZM43 40.8889H38.6587V34.0871C38.6587 32.2062 37.5014 31.7724 37.0676 31.7724C36.6338 31.7724 35.1867 32.0622 35.1867 34.0871C35.1867 34.3769 35.1867 40.8889 35.1867 40.8889H30.7014V28.4444H35.1867V30.1813C35.7645 29.168 36.9218 28.4444 39.0925 28.4444C41.2632 28.4444 43 30.1813 43 34.0871V40.8889Z" fill="#FBFBFB"/>
</svg>
